<mxfile host="app.diagrams.net" agent="Mozilla/5.0 (Windows NT 10.0; Win64; x64) AppleWebKit/537.36 (KHTML, like Gecko) Chrome/127.0.0.0 Safari/537.36" version="24.7.7">
  <diagram id="C5RBs43oDa-KdzZeNtuy" name="Page-1">
    <mxGraphModel dx="1600" dy="677" grid="1" gridSize="10" guides="1" tooltips="1" connect="1" arrows="1" fold="1" page="1" pageScale="1" pageWidth="827" pageHeight="1169" math="0" shadow="0">
      <root>
        <mxCell id="WIyWlLk6GJQsqaUBKTNV-0" />
        <mxCell id="WIyWlLk6GJQsqaUBKTNV-1" parent="WIyWlLk6GJQsqaUBKTNV-0" />
        <mxCell id="Zq07ZDlE4C5U2B2XpRiA-0" style="edgeStyle=orthogonalEdgeStyle;rounded=0;orthogonalLoop=1;jettySize=auto;html=1;entryX=0.5;entryY=0;entryDx=0;entryDy=0;" edge="1" parent="WIyWlLk6GJQsqaUBKTNV-1" source="Zq07ZDlE4C5U2B2XpRiA-1" target="Zq07ZDlE4C5U2B2XpRiA-5">
          <mxGeometry relative="1" as="geometry" />
        </mxCell>
        <mxCell id="Zq07ZDlE4C5U2B2XpRiA-1" value="Create chunks of video(~1mb)" style="rounded=1;whiteSpace=wrap;html=1;fontSize=12;glass=0;strokeWidth=1;shadow=0;" vertex="1" parent="WIyWlLk6GJQsqaUBKTNV-1">
          <mxGeometry x="340" y="140" width="120" height="40" as="geometry" />
        </mxCell>
        <mxCell id="Zq07ZDlE4C5U2B2XpRiA-2" style="edgeStyle=orthogonalEdgeStyle;rounded=0;orthogonalLoop=1;jettySize=auto;html=1;exitX=0.5;exitY=1;exitDx=0;exitDy=0;entryX=0;entryY=0.5;entryDx=0;entryDy=0;" edge="1" parent="WIyWlLk6GJQsqaUBKTNV-1" source="Zq07ZDlE4C5U2B2XpRiA-3" target="Zq07ZDlE4C5U2B2XpRiA-7">
          <mxGeometry relative="1" as="geometry" />
        </mxCell>
        <mxCell id="Zq07ZDlE4C5U2B2XpRiA-3" value="Start" style="ellipse;whiteSpace=wrap;html=1;" vertex="1" parent="WIyWlLk6GJQsqaUBKTNV-1">
          <mxGeometry x="30" y="60" width="80" height="60" as="geometry" />
        </mxCell>
        <mxCell id="Zq07ZDlE4C5U2B2XpRiA-4" style="edgeStyle=orthogonalEdgeStyle;rounded=0;orthogonalLoop=1;jettySize=auto;html=1;" edge="1" parent="WIyWlLk6GJQsqaUBKTNV-1" source="Zq07ZDlE4C5U2B2XpRiA-5" target="Zq07ZDlE4C5U2B2XpRiA-9">
          <mxGeometry relative="1" as="geometry" />
        </mxCell>
        <mxCell id="Zq07ZDlE4C5U2B2XpRiA-5" value="Generate VID from 16Bytes of first chunk" style="rounded=0;whiteSpace=wrap;html=1;" vertex="1" parent="WIyWlLk6GJQsqaUBKTNV-1">
          <mxGeometry x="550" y="230" width="160" height="80" as="geometry" />
        </mxCell>
        <mxCell id="Zq07ZDlE4C5U2B2XpRiA-6" style="edgeStyle=orthogonalEdgeStyle;rounded=0;orthogonalLoop=1;jettySize=auto;html=1;exitX=1;exitY=0.5;exitDx=0;exitDy=0;" edge="1" parent="WIyWlLk6GJQsqaUBKTNV-1" source="Zq07ZDlE4C5U2B2XpRiA-7" target="Zq07ZDlE4C5U2B2XpRiA-1">
          <mxGeometry relative="1" as="geometry" />
        </mxCell>
        <mxCell id="Zq07ZDlE4C5U2B2XpRiA-7" value="Read input Video File" style="rounded=0;whiteSpace=wrap;html=1;" vertex="1" parent="WIyWlLk6GJQsqaUBKTNV-1">
          <mxGeometry x="140" y="130" width="120" height="60" as="geometry" />
        </mxCell>
        <mxCell id="Zq07ZDlE4C5U2B2XpRiA-38" style="edgeStyle=orthogonalEdgeStyle;rounded=0;orthogonalLoop=1;jettySize=auto;html=1;" edge="1" parent="WIyWlLk6GJQsqaUBKTNV-1" source="Zq07ZDlE4C5U2B2XpRiA-9" target="Zq07ZDlE4C5U2B2XpRiA-37">
          <mxGeometry relative="1" as="geometry" />
        </mxCell>
        <mxCell id="Zq07ZDlE4C5U2B2XpRiA-9" value="Read GUID and RSA public key" style="whiteSpace=wrap;html=1;aspect=fixed;" vertex="1" parent="WIyWlLk6GJQsqaUBKTNV-1">
          <mxGeometry x="380" y="225" width="90" height="90" as="geometry" />
        </mxCell>
        <mxCell id="Zq07ZDlE4C5U2B2XpRiA-10" style="edgeStyle=orthogonalEdgeStyle;rounded=0;orthogonalLoop=1;jettySize=auto;html=1;" edge="1" parent="WIyWlLk6GJQsqaUBKTNV-1" source="Zq07ZDlE4C5U2B2XpRiA-11" target="Zq07ZDlE4C5U2B2XpRiA-13">
          <mxGeometry relative="1" as="geometry" />
        </mxCell>
        <mxCell id="Zq07ZDlE4C5U2B2XpRiA-11" value="Generate Dynamic Key using ECC equation for i=2" style="rounded=0;whiteSpace=wrap;html=1;" vertex="1" parent="WIyWlLk6GJQsqaUBKTNV-1">
          <mxGeometry x="160" y="420" width="120" height="60" as="geometry" />
        </mxCell>
        <mxCell id="Zq07ZDlE4C5U2B2XpRiA-12" value="" style="edgeStyle=orthogonalEdgeStyle;rounded=0;orthogonalLoop=1;jettySize=auto;html=1;" edge="1" parent="WIyWlLk6GJQsqaUBKTNV-1" source="Zq07ZDlE4C5U2B2XpRiA-13" target="Zq07ZDlE4C5U2B2XpRiA-28">
          <mxGeometry relative="1" as="geometry" />
        </mxCell>
        <mxCell id="Zq07ZDlE4C5U2B2XpRiA-13" value="key 2" style="rounded=0;whiteSpace=wrap;html=1;" vertex="1" parent="WIyWlLk6GJQsqaUBKTNV-1">
          <mxGeometry x="350" y="420" width="120" height="60" as="geometry" />
        </mxCell>
        <mxCell id="Zq07ZDlE4C5U2B2XpRiA-14" style="edgeStyle=orthogonalEdgeStyle;rounded=0;orthogonalLoop=1;jettySize=auto;html=1;" edge="1" parent="WIyWlLk6GJQsqaUBKTNV-1" source="Zq07ZDlE4C5U2B2XpRiA-15" target="Zq07ZDlE4C5U2B2XpRiA-11">
          <mxGeometry relative="1" as="geometry" />
        </mxCell>
        <mxCell id="Zq07ZDlE4C5U2B2XpRiA-15" value="For each chunk" style="shape=process;whiteSpace=wrap;html=1;backgroundOutline=1;" vertex="1" parent="WIyWlLk6GJQsqaUBKTNV-1">
          <mxGeometry x="160" y="330" width="120" height="60" as="geometry" />
        </mxCell>
        <mxCell id="Zq07ZDlE4C5U2B2XpRiA-19" style="edgeStyle=orthogonalEdgeStyle;rounded=0;orthogonalLoop=1;jettySize=auto;html=1;entryX=0;entryY=0.5;entryDx=0;entryDy=0;" edge="1" parent="WIyWlLk6GJQsqaUBKTNV-1" source="Zq07ZDlE4C5U2B2XpRiA-20" target="Zq07ZDlE4C5U2B2XpRiA-22">
          <mxGeometry relative="1" as="geometry" />
        </mxCell>
        <mxCell id="Zq07ZDlE4C5U2B2XpRiA-20" value="Generate Dynamic Key using ECC equation for i=3" style="rounded=0;whiteSpace=wrap;html=1;" vertex="1" parent="WIyWlLk6GJQsqaUBKTNV-1">
          <mxGeometry x="160" y="524" width="120" height="60" as="geometry" />
        </mxCell>
        <mxCell id="Zq07ZDlE4C5U2B2XpRiA-21" style="edgeStyle=orthogonalEdgeStyle;rounded=0;orthogonalLoop=1;jettySize=auto;html=1;entryX=0;entryY=0.5;entryDx=0;entryDy=0;" edge="1" parent="WIyWlLk6GJQsqaUBKTNV-1" source="Zq07ZDlE4C5U2B2XpRiA-22" target="Zq07ZDlE4C5U2B2XpRiA-30">
          <mxGeometry relative="1" as="geometry" />
        </mxCell>
        <mxCell id="Zq07ZDlE4C5U2B2XpRiA-22" value="key 3" style="rounded=0;whiteSpace=wrap;html=1;" vertex="1" parent="WIyWlLk6GJQsqaUBKTNV-1">
          <mxGeometry x="354" y="524" width="120" height="60" as="geometry" />
        </mxCell>
        <mxCell id="Zq07ZDlE4C5U2B2XpRiA-23" style="edgeStyle=orthogonalEdgeStyle;rounded=0;orthogonalLoop=1;jettySize=auto;html=1;" edge="1" parent="WIyWlLk6GJQsqaUBKTNV-1" source="Zq07ZDlE4C5U2B2XpRiA-24" target="Zq07ZDlE4C5U2B2XpRiA-26">
          <mxGeometry relative="1" as="geometry" />
        </mxCell>
        <mxCell id="Zq07ZDlE4C5U2B2XpRiA-24" value="Generate Dynamic Key using ECC equation for i=n" style="rounded=0;whiteSpace=wrap;html=1;" vertex="1" parent="WIyWlLk6GJQsqaUBKTNV-1">
          <mxGeometry x="160" y="630" width="120" height="60" as="geometry" />
        </mxCell>
        <mxCell id="Zq07ZDlE4C5U2B2XpRiA-25" style="edgeStyle=orthogonalEdgeStyle;rounded=0;orthogonalLoop=1;jettySize=auto;html=1;entryX=0;entryY=0.5;entryDx=0;entryDy=0;" edge="1" parent="WIyWlLk6GJQsqaUBKTNV-1" source="Zq07ZDlE4C5U2B2XpRiA-26" target="Zq07ZDlE4C5U2B2XpRiA-32">
          <mxGeometry relative="1" as="geometry" />
        </mxCell>
        <mxCell id="Zq07ZDlE4C5U2B2XpRiA-26" value="key n" style="rounded=0;whiteSpace=wrap;html=1;" vertex="1" parent="WIyWlLk6GJQsqaUBKTNV-1">
          <mxGeometry x="354" y="630" width="120" height="60" as="geometry" />
        </mxCell>
        <mxCell id="Zq07ZDlE4C5U2B2XpRiA-27" style="edgeStyle=orthogonalEdgeStyle;rounded=0;orthogonalLoop=1;jettySize=auto;html=1;entryX=0;entryY=0.5;entryDx=0;entryDy=0;" edge="1" parent="WIyWlLk6GJQsqaUBKTNV-1" source="Zq07ZDlE4C5U2B2XpRiA-28" target="Zq07ZDlE4C5U2B2XpRiA-20">
          <mxGeometry relative="1" as="geometry">
            <Array as="points">
              <mxPoint x="610" y="500" />
              <mxPoint x="140" y="500" />
              <mxPoint x="140" y="554" />
            </Array>
          </mxGeometry>
        </mxCell>
        <mxCell id="Zq07ZDlE4C5U2B2XpRiA-28" value="Encrypt chunk with i=2" style="rounded=0;whiteSpace=wrap;html=1;" vertex="1" parent="WIyWlLk6GJQsqaUBKTNV-1">
          <mxGeometry x="550" y="420" width="120" height="60" as="geometry" />
        </mxCell>
        <mxCell id="Zq07ZDlE4C5U2B2XpRiA-29" style="edgeStyle=orthogonalEdgeStyle;rounded=0;orthogonalLoop=1;jettySize=auto;html=1;entryX=0;entryY=0.5;entryDx=0;entryDy=0;" edge="1" parent="WIyWlLk6GJQsqaUBKTNV-1" source="Zq07ZDlE4C5U2B2XpRiA-30" target="Zq07ZDlE4C5U2B2XpRiA-24">
          <mxGeometry relative="1" as="geometry">
            <Array as="points">
              <mxPoint x="620" y="600" />
              <mxPoint x="140" y="600" />
              <mxPoint x="140" y="660" />
            </Array>
          </mxGeometry>
        </mxCell>
        <mxCell id="Zq07ZDlE4C5U2B2XpRiA-30" value="Encrypt chunk with i=3" style="rounded=0;whiteSpace=wrap;html=1;" vertex="1" parent="WIyWlLk6GJQsqaUBKTNV-1">
          <mxGeometry x="560" y="524" width="120" height="60" as="geometry" />
        </mxCell>
        <mxCell id="Zq07ZDlE4C5U2B2XpRiA-31" value="" style="edgeStyle=orthogonalEdgeStyle;rounded=0;orthogonalLoop=1;jettySize=auto;html=1;" edge="1" parent="WIyWlLk6GJQsqaUBKTNV-1" source="Zq07ZDlE4C5U2B2XpRiA-32" target="Zq07ZDlE4C5U2B2XpRiA-34">
          <mxGeometry relative="1" as="geometry" />
        </mxCell>
        <mxCell id="Zq07ZDlE4C5U2B2XpRiA-32" value="Encrypt chunk with i=n" style="rounded=0;whiteSpace=wrap;html=1;" vertex="1" parent="WIyWlLk6GJQsqaUBKTNV-1">
          <mxGeometry x="570" y="630" width="120" height="60" as="geometry" />
        </mxCell>
        <mxCell id="Zq07ZDlE4C5U2B2XpRiA-33" value="" style="edgeStyle=orthogonalEdgeStyle;rounded=0;orthogonalLoop=1;jettySize=auto;html=1;" edge="1" parent="WIyWlLk6GJQsqaUBKTNV-1" source="Zq07ZDlE4C5U2B2XpRiA-34" target="Zq07ZDlE4C5U2B2XpRiA-35">
          <mxGeometry relative="1" as="geometry" />
        </mxCell>
        <mxCell id="Zq07ZDlE4C5U2B2XpRiA-34" value="Save encrypted chunks" style="rounded=0;whiteSpace=wrap;html=1;" vertex="1" parent="WIyWlLk6GJQsqaUBKTNV-1">
          <mxGeometry x="570" y="750" width="120" height="60" as="geometry" />
        </mxCell>
        <mxCell id="Zq07ZDlE4C5U2B2XpRiA-35" value="Stop" style="ellipse;whiteSpace=wrap;html=1;rounded=0;" vertex="1" parent="WIyWlLk6GJQsqaUBKTNV-1">
          <mxGeometry x="590" y="880" width="80" height="80" as="geometry" />
        </mxCell>
        <mxCell id="Zq07ZDlE4C5U2B2XpRiA-39" style="edgeStyle=orthogonalEdgeStyle;rounded=0;orthogonalLoop=1;jettySize=auto;html=1;entryX=0;entryY=0.5;entryDx=0;entryDy=0;" edge="1" parent="WIyWlLk6GJQsqaUBKTNV-1" source="Zq07ZDlE4C5U2B2XpRiA-37" target="Zq07ZDlE4C5U2B2XpRiA-11">
          <mxGeometry relative="1" as="geometry">
            <Array as="points">
              <mxPoint x="140" y="255" />
              <mxPoint x="140" y="450" />
            </Array>
          </mxGeometry>
        </mxCell>
        <mxCell id="Zq07ZDlE4C5U2B2XpRiA-40" style="edgeStyle=orthogonalEdgeStyle;rounded=0;orthogonalLoop=1;jettySize=auto;html=1;" edge="1" parent="WIyWlLk6GJQsqaUBKTNV-1" source="Zq07ZDlE4C5U2B2XpRiA-37" target="Zq07ZDlE4C5U2B2XpRiA-15">
          <mxGeometry relative="1" as="geometry" />
        </mxCell>
        <mxCell id="Zq07ZDlE4C5U2B2XpRiA-42" value="" style="edgeStyle=orthogonalEdgeStyle;rounded=0;orthogonalLoop=1;jettySize=auto;html=1;" edge="1" parent="WIyWlLk6GJQsqaUBKTNV-1" source="Zq07ZDlE4C5U2B2XpRiA-37" target="Zq07ZDlE4C5U2B2XpRiA-41">
          <mxGeometry relative="1" as="geometry" />
        </mxCell>
        <mxCell id="Zq07ZDlE4C5U2B2XpRiA-37" value="Generate master AES key from first chunk using ECC equation" style="whiteSpace=wrap;html=1;aspect=fixed;" vertex="1" parent="WIyWlLk6GJQsqaUBKTNV-1">
          <mxGeometry x="175" y="210" width="90" height="90" as="geometry" />
        </mxCell>
        <mxCell id="Zq07ZDlE4C5U2B2XpRiA-41" value="Encrypt Master AES key using RSA" style="whiteSpace=wrap;html=1;aspect=fixed;" vertex="1" parent="WIyWlLk6GJQsqaUBKTNV-1">
          <mxGeometry x="20" y="210" width="90" height="90" as="geometry" />
        </mxCell>
      </root>
    </mxGraphModel>
  </diagram>
</mxfile>
